<svg id="noun_Settings_3627418" xmlns="http://www.w3.org/2000/svg" width="27" height="27" viewBox="0 0 27 27">
  <path id="Path_15512" data-name="Path 15512" d="M120.219,105.111h-.909a.729.729,0,0,1-.7-.511,11.484,11.484,0,0,0-.673-1.627.736.736,0,0,1,.133-.857l.643-.644a1.38,1.38,0,0,0,0-1.953l-2.134-2.134a1.38,1.38,0,0,0-1.953,0l-.644.644a.736.736,0,0,1-.857.133,10.5,10.5,0,0,0-1.627-.673.733.733,0,0,1-.511-.7v-.909a1.382,1.382,0,0,0-1.381-1.381h-3.017a1.382,1.382,0,0,0-1.381,1.381v.909a.729.729,0,0,1-.511.7,11.486,11.486,0,0,0-1.627.673.736.736,0,0,1-.857-.133l-.644-.644a1.38,1.38,0,0,0-1.953,0l-2.134,2.134a1.38,1.38,0,0,0,0,1.953l.644.644a.737.737,0,0,1,.133.857,10.5,10.5,0,0,0-.673,1.627.736.736,0,0,1-.7.511h-.909a1.382,1.382,0,0,0-1.381,1.381v3.017a1.382,1.382,0,0,0,1.381,1.381h.909a.729.729,0,0,1,.7.511,11.481,11.481,0,0,0,.673,1.627.731.731,0,0,1-.133.857l-.644.644a1.38,1.38,0,0,0,0,1.953l2.134,2.134a1.38,1.38,0,0,0,1.953,0l.644-.644a.736.736,0,0,1,.857-.133,10.509,10.509,0,0,0,1.627.673.733.733,0,0,1,.511.7v.909a1.382,1.382,0,0,0,1.381,1.381h3.017a1.382,1.382,0,0,0,1.381-1.381v-.909a.729.729,0,0,1,.511-.7,11.482,11.482,0,0,0,1.627-.673.736.736,0,0,1,.857.133l.644.644a1.38,1.38,0,0,0,1.953,0l2.134-2.134a1.38,1.38,0,0,0,0-1.953l-.643-.644a.737.737,0,0,1-.133-.857,10.5,10.5,0,0,0,.673-1.627.736.736,0,0,1,.7-.511h.909a1.382,1.382,0,0,0,1.381-1.381v-3.017A1.384,1.384,0,0,0,120.219,105.111ZM108.1,113.386A5.384,5.384,0,1,1,113.483,108,5.391,5.391,0,0,1,108.1,113.386Z" transform="translate(-94.6 -94.5)" fill="#fff"/>
</svg>
